<svg xmlns="http://www.w3.org/2000/svg" viewBox="0 0 800 1200" preserveAspectRatio="xMidYMid slice">
  <defs>
    <radialGradient id="sunGlow" cx="76%" cy="18%" r="42%">
      <stop offset="0%" stop-color="#ffffff" stop-opacity="0.42" />
      <stop offset="55%" stop-color="#ffffff" stop-opacity="0.10" />
      <stop offset="100%" stop-color="#ffffff" stop-opacity="0" />
    </radialGradient>
  </defs>
  <rect width="800" height="1200" fill="url(#sunGlow)" />
  <g opacity="0.22" fill="#ffffff">
    <circle cx="610" cy="180" r="54" />
    <g opacity="0.8">
      <rect x="585" y="60" width="10" height="44" rx="5" />
      <rect x="585" y="256" width="10" height="44" rx="5" />
      <rect x="490" y="175" width="44" height="10" rx="5" />
      <rect x="686" y="175" width="44" height="10" rx="5" />
      <rect x="520" y="98" width="44" height="10" rx="5" transform="rotate(-45 542 103)" />
      <rect x="655" y="98" width="44" height="10" rx="5" transform="rotate(45 677 103)" />
      <rect x="520" y="246" width="44" height="10" rx="5" transform="rotate(45 542 251)" />
      <rect x="655" y="246" width="44" height="10" rx="5" transform="rotate(-45 677 251)" />
    </g>
  </g>

  <g opacity="0.12" fill="#ffffff">
    <circle cx="190" cy="320" r="56" />
    <circle cx="260" cy="300" r="72" />
    <circle cx="330" cy="330" r="52" />
    <rect x="160" y="330" width="240" height="92" rx="46" />
  </g>

  <g opacity="0.10" stroke="#ffffff" stroke-width="6" fill="none">
    <path d="M40 980c120-34 210-34 330 0 120 34 210 34 330 0" />
    <path d="M40 1040c120-34 210-34 330 0 120 34 210 34 330 0" opacity="0.75" />
    <path d="M40 1100c120-34 210-34 330 0 120 34 210 34 330 0" opacity="0.55" />
  </g>
</svg>

