<svg xmlns="http://www.w3.org/2000/svg" viewBox="0 0 800 1200" preserveAspectRatio="xMidYMid slice">
  <defs>
    <radialGradient id="moonGlow" cx="72%" cy="18%" r="45%">
      <stop offset="0%" stop-color="#ffffff" stop-opacity="0.28" />
      <stop offset="60%" stop-color="#ffffff" stop-opacity="0.08" />
      <stop offset="100%" stop-color="#ffffff" stop-opacity="0" />
    </radialGradient>
    <mask id="crescent">
      <rect width="800" height="1200" fill="black" />
      <circle cx="600" cy="180" r="70" fill="white" />
      <circle cx="632" cy="160" r="70" fill="black" />
    </mask>
  </defs>
  <rect width="800" height="1200" fill="url(#moonGlow)" />
  <circle cx="600" cy="180" r="70" fill="#ffffff" opacity="0.22" mask="url(#crescent)" />

  <g fill="#ffffff" opacity="0.14">
    <circle cx="120" cy="160" r="4" />
    <circle cx="180" cy="220" r="3" />
    <circle cx="250" cy="130" r="2.5" />
    <circle cx="320" cy="200" r="3.5" />
    <circle cx="410" cy="140" r="2.8" />
    <circle cx="520" cy="220" r="3.2" />
    <circle cx="690" cy="120" r="2.6" />
  </g>

  <g opacity="0.10" fill="#ffffff">
    <circle cx="240" cy="360" r="60" />
    <circle cx="310" cy="340" r="78" />
    <circle cx="390" cy="375" r="55" />
    <rect x="208" y="375" width="260" height="98" rx="49" />
  </g>

  <g opacity="0.10" stroke="#ffffff" stroke-width="6" fill="none">
    <path d="M40 1000c120-34 210-34 330 0 120 34 210 34 330 0" />
    <path d="M40 1060c120-34 210-34 330 0 120 34 210 34 330 0" opacity="0.72" />
  </g>
</svg>

