<svg width="100" height="100" viewBox="0 0 100 100" fill="none" xmlns="http://www.w3.org/2000/svg">
<path d="M78.125 41.7344C74.8863 41.4724 71.7479 40.4861 68.9417 38.8483C66.1354 37.2104 63.733 34.963 61.912 32.272C60.091 29.581 58.8979 26.5152 58.4209 23.3012C57.9439 20.0871 58.1952 16.807 59.1562 13.7031C59.2052 13.5264 59.2013 13.3393 59.145 13.1648C59.0887 12.9903 58.9825 12.8361 58.8395 12.7214C58.6965 12.6067 58.523 12.5364 58.3405 12.5192C58.1579 12.5021 57.9744 12.5389 57.8125 12.625C54.9061 14.2727 52.4197 16.5696 50.5473 19.3366C48.6748 22.1035 47.467 25.2656 47.0179 28.5763C46.5688 31.8869 46.8907 35.2566 47.9584 38.4223C49.0261 41.5881 50.8108 44.4643 53.1732 46.8268C55.5356 49.1892 58.4119 50.9738 61.5777 52.0416C64.7434 53.1093 68.113 53.4311 71.4237 52.9821C74.7343 52.533 77.8965 51.3251 80.6634 49.4527C83.4303 47.5802 85.7273 45.0938 87.375 42.1875C87.4767 42.0248 87.526 41.8349 87.5163 41.6433C87.5067 41.4517 87.4385 41.2678 87.3209 41.1162C87.2034 40.9646 87.0422 40.8527 86.8591 40.7956C86.676 40.7385 86.4797 40.7389 86.2969 40.7969C83.6574 41.6267 80.8838 41.9448 78.125 41.7344Z" fill="#FCFC07"/>
<path d="M36.9687 34.2188C41.9415 34.2172 46.8203 35.5725 51.0798 38.1386C55.3392 40.7047 58.8178 44.3844 61.1406 48.7813C63.9938 47.1132 67.1933 46.1258 70.4903 45.896C73.7873 45.6662 77.0928 46.2002 80.1498 47.4563C83.2068 48.7125 85.9327 50.657 88.1156 53.1385C90.2985 55.62 91.8794 58.5717 92.7354 61.764C93.5914 64.9562 93.6994 68.3028 93.0509 71.5436C92.4025 74.7844 91.0151 77.8318 88.9968 80.4489C86.9784 83.066 84.3835 85.1822 81.4138 86.6328C78.4442 88.0834 75.1799 88.8293 71.875 88.8125L36.8906 88.9063C29.6386 88.9063 22.6836 86.0254 17.5557 80.8974C12.4277 75.7695 9.54688 68.8145 9.54688 61.5625C9.54687 54.3105 12.4277 47.3555 17.5557 42.2276C22.6836 37.0996 29.6386 34.2188 36.8906 34.2188H36.9687Z" fill="url(#paint0_linear_1_30)"/>
<path d="M92.6484 73.1148C95.8413 61.687 89.1655 49.8346 77.7377 46.6417C66.3098 43.4488 54.4574 50.1246 51.2646 61.5524C48.0717 72.9803 54.7475 84.8327 66.1753 88.0256C77.6031 91.2184 89.4556 84.5427 92.6484 73.1148Z" fill="url(#paint1_linear_1_30)"/>
<defs>
<linearGradient id="paint0_linear_1_30" x1="30.0781" y1="91.2344" x2="63.0313" y2="48.5625" gradientUnits="userSpaceOnUse">
<stop stop-color="#F2F2F2"/>
<stop offset="1" stop-color="#CFCFCF"/>
</linearGradient>
<linearGradient id="paint1_linear_1_30" x1="80.7416" y1="59.6972" x2="55.8383" y2="81.3574" gradientUnits="userSpaceOnUse">
<stop offset="0.02" stop-color="white"/>
<stop offset="1" stop-color="white" stop-opacity="0"/>
</linearGradient>
</defs>
</svg>
