<svg width="100" height="100" viewBox="0 0 100 100" fill="none" xmlns="http://www.w3.org/2000/svg">
<path d="M63 63C74.0457 63 83 54.0457 83 43C83 31.9543 74.0457 23 63 23C51.9543 23 43 31.9543 43 43C43 54.0457 51.9543 63 63 63Z" fill="#FCFC07"/>
<path d="M63 15L63 19" stroke="#FCFC07" stroke-width="3" stroke-miterlimit="10" stroke-linecap="round"/>
<path d="M91 43L87 43" stroke="#FCFC07" stroke-width="3" stroke-miterlimit="10" stroke-linecap="round"/>
<path d="M83.5 23L80 26.5" stroke="#FCFC07" stroke-width="3" stroke-miterlimit="10" stroke-linecap="round"/>
<path d="M46.5 26.5L43 23" stroke="#FCFC07" stroke-width="3" stroke-miterlimit="10" stroke-linecap="round"/>
<path d="M36.7188 34.2187C41.6994 34.2086 46.5881 35.5599 50.8566 38.1265C55.125 40.6931 58.6109 44.3774 60.9375 48.7812C63.7878 47.1147 66.9838 46.1276 70.2775 45.8965C73.5711 45.6653 76.8737 46.1964 79.9288 47.4485C82.9839 48.7006 85.7093 50.64 87.8935 53.1161C90.0776 55.5922 91.6616 58.5384 92.5225 61.7259C93.3835 64.9134 93.4982 68.2565 92.8578 71.4955C92.2173 74.7345 90.8389 77.7824 88.8297 80.4024C86.8204 83.0224 84.2344 85.144 81.2722 86.6026C78.3102 88.0611 75.0517 88.8173 71.75 88.8125L36.7188 88.9062C29.4667 88.9062 22.5117 86.0254 17.3838 80.8974C12.2559 75.7695 9.375 68.8145 9.375 61.5625C9.375 54.3105 12.2559 47.3555 17.3838 42.2275C22.5117 37.0996 29.4667 34.2187 36.7188 34.2187Z" fill="url(#paint0_linear_1_6)"/>
<path d="M92.3937 73.1056C95.5865 61.6778 88.9107 49.8253 77.4829 46.6325C66.0551 43.4396 54.2026 50.1154 51.0098 61.5432C47.8169 72.9711 54.4927 84.8235 65.9205 88.0164C77.3484 91.2092 89.2008 84.5334 92.3937 73.1056Z" fill="url(#paint1_linear_1_6)"/>
<defs>
<linearGradient id="paint0_linear_1_6" x1="29.8125" y1="91.2344" x2="62.7656" y2="48.5625" gradientUnits="userSpaceOnUse">
<stop stop-color="#F2F2F2"/>
<stop offset="1" stop-color="#CFCFCF"/>
</linearGradient>
<linearGradient id="paint1_linear_1_6" x1="80.4718" y1="59.6838" x2="55.5794" y2="81.3633" gradientUnits="userSpaceOnUse">
<stop offset="0.02" stop-color="white"/>
<stop offset="1" stop-color="white" stop-opacity="0"/>
</linearGradient>
</defs>
</svg>
